<svg width="413" height="225" viewBox="0 0 413 225" fill="none" xmlns="http://www.w3.org/2000/svg">
<path d="M31.5704 223.605C31.9107 223.609 32.2507 223.59 32.5829 223.548C32.8121 223.518 33.0292 223.463 33.2228 223.388C33.3724 223.329 33.4889 223.247 33.5585 223.152C33.6206 223.054 33.6515 222.951 33.6495 222.847C33.6479 222.728 33.5928 222.611 33.4893 222.507C33.3858 222.404 33.2374 222.316 33.0579 222.254C32.4142 222.038 31.7228 221.87 31.0015 221.756C30.5806 221.671 30.1483 221.576 29.7387 221.467C29.3254 221.364 28.9419 221.226 28.6011 221.058C28.2619 220.891 27.9845 220.688 27.7848 220.46C27.5594 220.194 27.4502 219.901 27.4662 219.606C27.4587 219.294 27.5732 218.984 27.8018 218.699C28.0212 218.432 28.3451 218.197 28.749 218.012C29.1903 217.815 29.6942 217.667 30.2336 217.577C30.8737 217.471 31.538 217.42 32.2046 217.426C33.5277 217.41 34.8365 217.583 36.0101 217.928L35.1768 219.213C34.7906 219.102 34.3892 219.009 33.9765 218.935C33.4618 218.849 32.9264 218.808 32.3895 218.815C31.8745 218.793 31.3584 218.848 30.8935 218.975C30.7455 219.028 30.6252 219.102 30.5451 219.19C30.4651 219.278 30.4282 219.376 30.4384 219.475C30.4322 219.593 30.4907 219.711 30.6062 219.81C30.7344 219.909 30.8958 219.992 31.0812 220.056C31.304 220.135 31.5403 220.202 31.7865 220.255C32.051 220.314 32.3554 220.375 32.6682 220.438C33.3357 220.578 33.9178 220.716 34.4146 220.852C34.8689 220.975 35.2857 221.137 35.6489 221.334C35.9736 221.515 36.2241 221.735 36.3827 221.976C36.5564 222.263 36.6383 222.565 36.6245 222.868C36.6245 223.545 36.2035 224.071 35.3617 224.446C34.5198 224.821 33.256 225.005 31.5704 225C31.0547 225.002 30.5395 224.983 30.0288 224.942C29.6183 224.909 29.2117 224.862 28.8115 224.801C28.5015 224.753 28.1974 224.693 27.9014 224.623C27.6826 224.57 27.469 224.51 27.2614 224.444L28.0777 223.144C29.1516 223.466 30.3551 223.624 31.5704 223.605V223.605Z" fill="#941D80"/>
<path d="M60.8256 223.449V224.854H52.2276V217.581H55.1259V223.444L60.8256 223.449Z" fill="#941D80"/>
<path d="M88.3146 221.215C88.3338 221.775 88.1659 222.332 87.8197 222.856C87.5241 223.3 87.0656 223.703 86.4744 224.04C85.8986 224.361 85.2042 224.607 84.4408 224.759C83.6275 224.922 82.7698 225.004 81.9067 225C81.0585 225.003 80.216 224.922 79.418 224.759C78.6532 224.605 77.9559 224.359 77.373 224.04C76.772 223.705 76.3038 223.301 75.9993 222.856C75.6497 222.332 75.4799 221.775 75.4987 221.215C75.4785 220.654 75.6554 220.096 76.0192 219.574C76.336 219.127 76.8135 218.722 77.4214 218.384C78.0031 218.064 78.6993 217.817 79.4635 217.66C80.2481 217.499 81.0774 217.418 81.9123 217.421C82.7605 217.418 83.603 217.499 84.401 217.662C85.1662 217.817 85.8628 218.064 86.4431 218.386C87.0449 218.723 87.5131 219.129 87.8169 219.576C88.167 220.099 88.3359 220.656 88.3146 221.215ZM78.4879 221.215C78.4799 221.541 78.5585 221.866 78.7212 222.179C78.8589 222.447 79.0857 222.698 79.3896 222.919C79.6739 223.124 80.0391 223.289 80.4561 223.401C80.9128 223.511 81.4043 223.568 81.901 223.568C82.3976 223.568 82.8891 223.511 83.3458 223.401C83.7666 223.29 84.1358 223.125 84.4237 222.919C84.7267 222.698 84.9525 222.447 85.0893 222.179C85.252 221.866 85.3306 221.541 85.3225 221.215C85.329 220.889 85.2504 220.565 85.0893 220.252C84.9537 219.982 84.7278 219.729 84.4237 219.507C84.1365 219.301 83.7672 219.135 83.3458 219.025C82.8928 218.912 82.4014 218.858 81.9067 218.864C81.406 218.859 80.9098 218.918 80.4561 219.038C80.0408 219.151 79.6761 219.316 79.3896 219.52C79.0851 219.742 78.8583 219.995 78.7212 220.265C78.5654 220.574 78.4907 220.894 78.4993 221.215H78.4879Z" fill="#941D80"/>
<path d="M110.377 218.845C109.029 218.845 108.054 219.059 107.453 219.487C106.852 219.916 106.551 220.494 106.551 221.223C106.546 221.549 106.621 221.873 106.773 222.187C106.908 222.459 107.135 222.713 107.442 222.937C107.742 223.144 108.123 223.309 108.557 223.418C109.049 223.539 109.581 223.598 110.118 223.592C110.439 223.592 110.715 223.592 110.943 223.582C111.145 223.576 111.347 223.562 111.546 223.539V221.011H114.444V224.608C113.899 224.716 113.34 224.799 112.772 224.856C111.833 224.951 110.881 224.995 109.928 224.987C109.032 224.993 108.141 224.908 107.299 224.735C106.541 224.577 105.854 224.326 105.286 224.001C104.711 223.662 104.271 223.258 103.995 222.816C103.677 222.3 103.523 221.757 103.539 221.21C103.522 220.659 103.692 220.11 104.04 219.595C104.349 219.149 104.816 218.744 105.414 218.405C105.998 218.079 106.698 217.827 107.467 217.665C108.273 217.496 109.125 217.411 109.984 217.414C110.967 217.41 111.947 217.485 112.891 217.639C113.19 217.687 113.482 217.749 113.764 217.822C113.992 217.886 114.157 217.935 114.256 217.97L113.42 219.28C112.984 219.152 112.527 219.049 112.055 218.97C111.509 218.883 110.944 218.841 110.377 218.845V218.845Z" fill="#941D80"/>
<path d="M139.143 224.854C139.001 224.6 138.858 224.342 138.682 224.075C138.506 223.809 138.355 223.544 138.19 223.272H133.164C132.999 223.537 132.837 223.804 132.675 224.075C132.513 224.346 132.36 224.602 132.217 224.852H129.208C129.694 224.069 130.153 223.345 130.588 222.681C131.022 222.018 131.447 221.392 131.865 220.804C132.28 220.216 132.689 219.659 133.093 219.131C133.497 218.603 133.916 218.088 134.35 217.585H137.089C137.514 218.089 137.931 218.604 138.341 219.131C138.75 219.658 139.164 220.215 139.581 220.804C139.996 221.392 140.422 222.018 140.858 222.681C141.294 223.345 141.755 224.069 142.24 224.852L139.143 224.854ZM135.664 219.234C135.599 219.34 135.505 219.484 135.38 219.666C135.255 219.847 135.113 220.057 134.953 220.295C134.794 220.533 134.618 220.794 134.422 221.08C134.225 221.366 134.026 221.668 133.821 221.981H137.502C137.306 221.66 137.115 221.365 136.933 221.079C136.751 220.793 136.575 220.528 136.407 220.29C136.239 220.053 136.097 219.842 135.969 219.661C135.841 219.479 135.741 219.336 135.667 219.232L135.664 219.234Z" fill="#941D80"/>
<path d="M165.909 224.854C165.079 224.02 164.181 223.198 163.216 222.389C162.267 221.591 161.238 220.824 160.133 220.093V224.854H157.283V217.581H159.641C160.05 217.813 160.503 218.096 160.998 218.431C161.492 218.766 161.997 219.124 162.511 219.505C163.024 219.887 163.536 220.282 164.044 220.69C164.552 221.098 165.026 221.491 165.466 221.87V217.581H168.344V224.849L165.909 224.854Z" fill="#941D80"/>
<path d="M195.421 218.845C194.071 218.845 193.095 219.059 192.494 219.487C191.893 219.916 191.593 220.494 191.595 221.223C191.59 221.549 191.664 221.873 191.817 222.187C191.951 222.459 192.178 222.714 192.485 222.937C192.785 223.144 193.167 223.31 193.6 223.418C194.091 223.539 194.623 223.598 195.159 223.592C195.481 223.592 195.757 223.589 195.987 223.582C196.189 223.576 196.391 223.561 196.59 223.539V221.011H199.488V224.608C198.943 224.716 198.384 224.799 197.815 224.855C196.877 224.951 195.925 224.995 194.971 224.987C194.075 224.994 193.185 224.908 192.343 224.735C191.584 224.577 190.896 224.326 190.327 224.001C189.753 223.662 189.314 223.258 189.038 222.816C188.72 222.3 188.566 221.757 188.583 221.21C188.564 220.659 188.734 220.11 189.084 219.595C189.392 219.149 189.86 218.744 190.458 218.405C191.041 218.079 191.741 217.827 192.511 217.665C193.316 217.496 194.169 217.411 195.028 217.414C195.577 217.412 196.126 217.435 196.669 217.482C197.097 217.52 197.519 217.574 197.935 217.642C198.233 217.69 198.524 217.751 198.805 217.825C199.036 217.89 199.201 217.938 199.297 217.973L198.464 219.283C198.027 219.156 197.57 219.052 197.099 218.974C196.553 218.885 195.988 218.842 195.421 218.845V218.845Z" fill="#941D80"/>
<path d="M227.819 221.215C227.837 221.775 227.67 222.331 227.327 222.856C227.031 223.3 226.572 223.704 225.978 224.04C225.403 224.362 224.709 224.607 223.945 224.759C223.132 224.922 222.274 225.004 221.411 225C220.563 225.003 219.72 224.921 218.922 224.759C218.158 224.604 217.462 224.359 216.88 224.04C216.277 223.705 215.809 223.302 215.506 222.856C215.154 222.332 214.983 221.775 215.003 221.215C214.983 220.654 215.159 220.096 215.523 219.574C215.84 219.127 216.318 218.722 216.925 218.384C217.508 218.064 218.204 217.817 218.968 217.66C219.75 217.499 220.577 217.417 221.411 217.419C222.259 217.416 223.101 217.498 223.899 217.66C224.665 217.815 225.363 218.063 225.944 218.384C226.544 218.722 227.012 219.128 227.318 219.574C227.668 220.098 227.838 220.655 227.819 221.215V221.215ZM217.995 221.215C217.987 221.541 218.065 221.866 218.225 222.179C218.364 222.447 218.591 222.698 218.894 222.919C219.18 223.124 219.546 223.289 219.963 223.401C220.419 223.511 220.91 223.568 221.406 223.568C221.903 223.568 222.394 223.511 222.85 223.401C223.271 223.29 223.64 223.125 223.928 222.919C224.231 222.698 224.457 222.447 224.596 222.179C224.756 221.866 224.834 221.541 224.827 221.215C224.833 220.889 224.755 220.565 224.596 220.252C224.458 219.982 224.232 219.729 223.928 219.507C223.641 219.301 223.271 219.135 222.85 219.025C222.397 218.912 221.905 218.858 221.411 218.864C220.911 218.859 220.416 218.918 219.963 219.038C219.547 219.151 219.182 219.316 218.894 219.52C218.59 219.742 218.364 219.995 218.225 220.265C218.065 220.573 217.985 220.894 217.986 221.215H217.995Z" fill="#941D80"/>
<path d="M243.595 224.854V217.581H252.279V218.956H246.494V220.382H251.639V221.724H246.494V223.475H252.717V224.849L243.595 224.854Z" fill="#941D80"/>
<path d="M271.733 223.605C272.073 223.609 272.413 223.59 272.745 223.548C272.975 223.518 273.193 223.463 273.388 223.388C273.536 223.328 273.652 223.247 273.721 223.152C273.784 223.054 273.815 222.951 273.812 222.847C273.81 222.728 273.755 222.611 273.652 222.507C273.548 222.404 273.4 222.316 273.22 222.254C272.581 222.035 271.894 221.864 271.175 221.747C270.754 221.662 270.322 221.567 269.913 221.458C269.5 221.354 269.116 221.216 268.775 221.048C268.436 220.881 268.158 220.678 267.956 220.451C267.735 220.184 267.628 219.891 267.643 219.597C267.634 219.284 267.748 218.974 267.976 218.689C268.196 218.423 268.52 218.188 268.923 218.002C269.365 217.805 269.87 217.657 270.41 217.567C271.049 217.461 271.713 217.411 272.378 217.416C273.702 217.401 275.01 217.573 276.184 217.919L275.348 219.203C274.964 219.092 274.564 219 274.153 218.925C273.637 218.839 273.101 218.799 272.563 218.805C272.048 218.783 271.532 218.839 271.067 218.966C270.919 219.018 270.799 219.092 270.719 219.18C270.639 219.268 270.602 219.366 270.612 219.465C270.606 219.584 270.665 219.701 270.78 219.801C270.908 219.899 271.07 219.983 271.255 220.046C271.478 220.126 271.714 220.192 271.96 220.245C272.225 220.305 272.529 220.366 272.842 220.428C273.509 220.569 274.092 220.707 274.588 220.843C275.043 220.965 275.46 221.127 275.823 221.324C276.147 221.506 276.398 221.725 276.557 221.967C276.729 222.254 276.811 222.555 276.798 222.858C276.798 223.536 276.377 224.062 275.535 224.436C274.694 224.811 273.424 224.998 271.727 224.997C271.211 224.999 270.696 224.98 270.186 224.939C269.775 224.906 269.368 224.859 268.968 224.798C268.658 224.75 268.354 224.69 268.058 224.619C267.839 224.566 267.626 224.507 267.418 224.441L268.237 223.141C268.69 223.276 269.167 223.383 269.659 223.462C270.335 223.565 271.033 223.613 271.733 223.605V223.605Z" fill="#941D80"/>
<path d="M304.612 217.581H307.513V224.849H304.612V221.766H299.748V224.849H296.85V217.581H299.748V220.361H304.612V217.581Z" fill="#941D80"/>
<path d="M323.867 224.854V217.581H332.558V218.956H326.762V220.382H331.916V221.724H326.77V223.475H332.994V224.849L323.867 224.854Z" fill="#941D80"/>
<path d="M352.263 217.503C354.193 217.503 355.673 217.696 356.703 218.084C357.732 218.472 358.246 219.075 358.244 219.894C358.279 220.335 358.06 220.771 357.621 221.137C357.157 221.475 356.536 221.735 355.827 221.886C356.088 222.068 356.358 222.275 356.646 222.509C356.933 222.744 357.215 222.991 357.499 223.243C357.783 223.495 358.048 223.765 358.307 224.046C358.566 224.327 358.807 224.594 359.032 224.86H355.792C355.556 224.623 355.317 224.379 355.073 224.136C354.828 223.894 354.584 223.654 354.328 223.423C354.072 223.192 353.821 222.974 353.574 222.768C353.327 222.562 353.076 222.375 352.829 222.206H351.407V224.86H348.509V217.699C349.156 217.627 349.81 217.578 350.468 217.551C351.13 217.52 351.728 217.504 352.263 217.503ZM352.431 218.898C352.217 218.898 352.03 218.898 351.862 218.908L351.39 218.929V220.901H352.206C353.295 220.901 354.077 220.823 354.547 220.669C354.783 220.588 354.974 220.472 355.098 220.333C355.223 220.194 355.276 220.038 355.252 219.882C355.273 219.731 355.217 219.579 355.09 219.444C354.964 219.31 354.772 219.198 354.538 219.123C354.06 218.972 353.358 218.898 352.431 218.898V218.898Z" fill="#941D80"/>
<path d="M374.251 224.854V217.581H382.946V218.956H377.138V220.382H382.283V221.724H377.138V223.475H383.358V224.849L374.251 224.854Z" fill="#941D80"/>
<path d="M0 204.587V181.991H26.7978V186.269H9.01036V190.996H24.8354V195.261H9.01036V204.586L0 204.587Z" fill="#29265B"/>
<path d="M44.8754 181.729C50.8823 181.729 55.4833 182.333 58.6782 183.539C61.8732 184.746 63.4716 186.619 63.4735 189.159C63.4735 190.746 62.8288 192.034 61.5395 193.023C60.2501 194.012 58.3919 194.789 55.9649 195.354C56.7726 195.922 57.6202 196.569 58.5076 197.296C59.395 198.023 60.271 198.783 61.1356 199.578C62.0002 200.371 62.8374 201.197 63.647 202.055C64.4567 202.914 65.2075 203.756 65.8996 204.583H55.8255C55.0917 203.844 54.3484 203.095 53.5957 202.335C52.8429 201.575 52.0693 200.835 51.2748 200.117C50.4842 199.399 49.702 198.719 48.9284 198.079C48.1548 197.439 47.3812 196.858 46.6075 196.335H42.1621V204.584H33.1517V182.317C35.1646 182.097 37.1989 181.944 39.244 181.859C41.343 181.773 43.2201 181.729 44.8754 181.729ZM45.3959 186.065C44.738 186.065 44.1511 186.076 43.6354 186.097L42.1621 186.163V192.294H44.7019C48.0903 192.294 50.5164 192.054 51.9802 191.576C53.444 191.097 54.175 190.282 54.1731 189.13C54.1731 188.021 53.4326 187.233 51.9518 186.767C50.4709 186.3 48.2856 186.067 45.3959 186.067V186.065Z" fill="#29265B"/>
<path d="M71.6733 204.587V181.991H98.693V186.269H80.6836V190.704H96.6821V194.879H80.6836V200.324H100.024V204.596L71.6733 204.587Z" fill="#29265B"/>
<path d="M106.674 204.587V181.991H133.693V186.269H115.684V190.704H131.685V194.879H115.684V200.324H135.025V204.596L106.674 204.587Z" fill="#29265B"/>
<path d="M176.732 193.273C176.732 195.229 176.192 196.935 175.113 198.392C174.112 199.785 172.539 201.024 170.523 202.005C168.402 203.004 165.931 203.737 163.273 204.157C160.155 204.656 156.926 204.898 153.685 204.875C152.07 204.875 150.183 204.837 148.025 204.761C145.891 204.684 143.769 204.523 141.674 204.279V182.285C143.821 182.062 145.991 181.915 148.17 181.843C150.423 181.768 152.358 181.73 153.975 181.729C157.122 181.71 160.258 181.929 163.301 182.381C165.93 182.77 168.381 183.471 170.491 184.437C172.53 185.4 174.118 186.631 175.113 188.022C176.192 189.48 176.732 191.231 176.732 193.273ZM150.682 200.446C151.105 200.469 151.598 200.485 152.155 200.496C152.712 200.507 153.378 200.512 154.146 200.512C158.651 200.512 161.991 199.87 164.166 198.585C166.341 197.301 167.428 195.529 167.428 193.27C167.428 190.9 166.385 189.106 164.3 187.889C162.214 186.672 158.927 186.064 154.439 186.067C153.825 186.067 153.187 186.067 152.533 186.083C151.915 186.092 151.298 186.12 150.685 186.165L150.682 200.446Z" fill="#29265B"/>
<path d="M222.358 193.273C222.358 195.209 221.848 196.91 220.828 198.376C219.906 199.757 218.478 201.012 216.638 202.06C214.847 203.058 212.688 203.82 210.316 204.294C207.786 204.802 205.117 205.056 202.432 205.044C199.794 205.054 197.174 204.8 194.693 204.294C192.317 203.813 190.151 203.051 188.339 202.06C186.47 201.017 185.015 199.761 184.072 198.376C183.033 196.909 182.514 195.208 182.514 193.273C182.514 191.339 183.053 189.638 184.132 188.17C185.12 186.783 186.605 185.526 188.492 184.477C190.306 183.484 192.47 182.718 194.843 182.229C197.276 181.726 199.849 181.472 202.44 181.479C205.078 181.469 207.698 181.723 210.179 182.229C212.558 182.713 214.724 183.479 216.533 184.477C218.397 185.526 219.85 186.784 220.799 188.17C221.838 189.638 222.358 191.339 222.358 193.273ZM191.806 193.273C191.782 194.288 192.024 195.299 192.525 196.273C192.954 197.107 193.66 197.887 194.604 198.572C195.493 199.206 196.63 199.713 197.926 200.056C199.346 200.399 200.873 200.576 202.417 200.576C203.961 200.576 205.489 200.399 206.908 200.056C208.215 199.717 209.362 199.209 210.256 198.572C211.201 197.887 211.908 197.107 212.338 196.273C212.839 195.299 213.081 194.288 213.057 193.273C213.08 192.253 212.837 191.237 212.338 190.256C211.912 189.417 211.205 188.631 210.256 187.942C209.363 187.305 208.216 186.797 206.908 186.458C205.502 186.101 203.974 185.923 202.432 185.937C200.877 185.92 199.336 186.104 197.926 186.474C196.632 186.826 195.497 187.339 194.604 187.974C193.655 188.664 192.95 189.45 192.525 190.29C192.029 191.259 191.786 192.264 191.806 193.273Z" fill="#29265B"/>
<path d="M240.492 181.991C241.186 182.709 241.987 183.595 242.896 184.649C243.804 185.702 244.752 186.843 245.74 188.072C246.728 189.301 247.703 190.556 248.667 191.838C249.63 193.119 250.537 194.326 251.388 195.457C252.236 194.329 253.143 193.122 254.11 191.838C255.077 190.553 256.052 189.298 257.034 188.072C258.018 186.843 258.966 185.702 259.878 184.649C260.79 183.595 261.591 182.709 262.282 181.991H270.481C270.861 183.49 271.217 185.169 271.551 187.028C271.884 188.888 272.169 190.823 272.404 192.833C272.654 194.844 272.886 196.859 273.098 198.881C273.31 200.902 273.493 202.804 273.647 204.587H264.864C264.75 202.393 264.597 200.002 264.403 197.415C264.21 194.827 263.926 192.218 263.55 189.588C262.852 190.501 262.079 191.512 261.229 192.621C260.38 193.73 259.54 194.839 258.709 195.947C257.881 197.055 257.08 198.115 256.306 199.126C255.532 200.138 254.875 201.002 254.335 201.718H248.029C247.489 201.002 246.832 200.138 246.058 199.126C245.285 198.115 244.484 197.055 243.655 195.947C242.825 194.837 241.985 193.728 241.135 192.621C240.286 191.514 239.513 190.503 238.817 189.588C238.438 192.218 238.153 194.827 237.964 197.415C237.774 200.002 237.616 202.393 237.489 204.587H228.712C228.862 202.805 229.044 200.903 229.258 198.881C229.472 196.858 229.703 194.843 229.952 192.833C230.202 190.823 230.487 188.888 230.805 187.028C231.124 185.169 231.479 183.49 231.872 181.991H240.492Z" fill="#29265B"/>
<path d="M295.012 204.881C292.819 204.881 290.638 204.843 288.471 204.767C286.188 204.682 283.92 204.502 281.685 204.229V182.317C283.691 182.109 285.716 181.962 287.751 181.877C289.945 181.779 291.985 181.729 293.872 181.729C296.222 181.721 298.569 181.825 300.888 182.039C302.824 182.207 304.691 182.566 306.406 183.099C307.891 183.57 309.134 184.25 310.015 185.073C310.884 185.886 311.317 186.891 311.315 188.088C311.315 189.893 309.775 191.317 306.693 192.36C309.236 192.903 310.969 193.643 311.893 194.577C312.832 195.546 313.309 196.636 313.278 197.741C313.278 200.111 311.747 201.893 308.687 203.088C305.627 204.282 301.069 204.88 295.012 204.881ZM290.462 190.86H294.85C297.624 190.86 299.608 190.659 300.8 190.256C301.993 189.854 302.589 189.207 302.589 188.316C302.589 187.404 301.974 186.762 300.743 186.389C299.513 186.017 297.703 185.832 295.314 185.835C294.542 185.835 293.714 185.841 292.831 185.851C291.943 185.863 291.156 185.89 290.462 185.933V190.86ZM290.462 194.741V200.576C291.116 200.621 291.828 200.654 292.598 200.674C293.367 200.695 294.215 200.706 295.14 200.708C297.835 200.708 300.011 200.491 301.668 200.056C303.325 199.621 304.153 198.819 304.151 197.647C304.151 196.604 303.458 195.859 302.072 195.414C300.686 194.968 298.702 194.746 296.122 194.746L290.462 194.741Z" fill="#29265B"/>
<path d="M320.482 181.991H329.492V204.587H320.482V181.991Z" fill="#29265B"/>
<path d="M350.457 181.729C356.464 181.729 361.066 182.333 364.262 183.539C367.459 184.746 369.057 186.619 369.055 189.159C369.055 190.746 368.41 192.034 367.121 193.023C365.831 194.012 363.973 194.789 361.546 195.354C362.356 195.922 363.203 196.569 364.089 197.296C364.974 198.023 365.85 198.783 366.717 199.578C367.582 200.371 368.419 201.197 369.228 202.055C370.038 202.914 370.789 203.756 371.481 204.583H361.41C360.676 203.844 359.932 203.095 359.177 202.335C358.422 201.575 357.65 200.835 356.859 200.117C356.066 199.399 355.283 198.719 354.51 198.079C353.736 197.439 352.963 196.858 352.192 196.335H347.743V204.584H338.742V182.317C340.755 182.097 342.791 181.944 344.837 181.859C346.928 181.773 348.801 181.729 350.457 181.729ZM350.977 186.065C350.323 186.065 349.736 186.076 349.217 186.097L347.743 186.163V192.294H350.286C353.675 192.294 356.1 192.054 357.562 191.576C359.023 191.097 359.755 190.282 359.757 189.13C359.757 188.021 359.016 187.233 357.533 186.767C356.05 186.3 353.863 186.067 350.972 186.067L350.977 186.065Z" fill="#29265B"/>
<path d="M412.315 193.273C412.315 195.229 411.775 196.936 410.696 198.392C409.697 199.788 408.124 201.028 406.106 202.012C403.986 203.01 401.515 203.743 398.856 204.164C395.739 204.663 392.511 204.904 389.271 204.881C387.652 204.881 385.764 204.843 383.609 204.767C381.474 204.69 379.352 204.529 377.257 204.286V182.285C379.405 182.062 381.574 181.915 383.754 181.843C386.006 181.768 387.941 181.73 389.559 181.729C392.705 181.71 395.842 181.929 398.885 182.381C401.514 182.77 403.966 183.47 406.078 184.437C408.114 185.4 409.701 186.632 410.696 188.022C411.775 189.48 412.315 191.231 412.315 193.273ZM386.268 200.446C386.689 200.469 387.181 200.485 387.738 200.496C388.296 200.507 388.961 200.512 389.729 200.512C394.234 200.512 397.574 199.87 399.749 198.585C401.924 197.301 403.012 195.529 403.014 193.27C403.014 190.9 401.971 189.106 399.886 187.889C397.8 186.672 394.507 186.063 390.008 186.063C389.394 186.063 388.756 186.063 388.102 186.079C387.485 186.089 386.869 186.116 386.256 186.161L386.268 200.446Z" fill="#29265B"/>
<path d="M323.77 54.6844L301.56 47.2095C297.862 42.0229 292.376 38.5207 287.467 35.4296L286.898 35.078C275.225 27.6995 262.253 24.2471 248.297 24.7898C230.714 25.4835 213.089 32.6404 197.164 45.4801C193.811 44.7078 190.44 43.9659 187.087 43.2321C160.218 37.3389 134.814 31.7717 120.186 9.22834L114.194 0L112.103 9.75985C109.996 19.5823 109.635 28.0656 110.613 35.4666C105.07 31.8295 100.399 27.5277 96.5286 22.4213L90.3965 14.3411L88.5307 23.0668C77.6461 73.8364 120.403 84.7845 158.116 94.4496L158.185 94.4656C154.439 102.504 152.365 113.558 150.369 124.286C149.416 129.41 148.335 135.222 146.976 140.604C145.161 140.765 143.384 140.925 141.643 141.073C126.788 142.358 116.045 143.284 113.025 147.369C110.525 150.741 115.118 154.33 116.631 155.51C121.304 159.17 128.164 163.785 135.775 163.785C136.696 163.785 137.612 163.717 138.5 163.581C146.93 162.314 151.199 155.685 154.354 144.699C160.98 144.037 167.932 143.193 174.897 141.95C234.784 131.223 246.218 107.535 256.309 86.6375C263.371 71.9865 269.594 59.1388 291.616 53.1155C297.95 51.7506 323.77 54.6844 323.77 54.6844ZM136.339 159.017C134.362 159.315 129.902 157.829 123.403 152.755C120.209 150.253 120.619 149.357 120.735 149.203C121.953 147.564 133.571 146.557 142.903 145.751L145.599 145.516C143.364 152.769 140.428 158.402 136.347 159.017H136.339ZM95.5274 31.7203C99.9962 35.9771 105.621 39.8113 112.197 43.0827C119.455 68.3543 144.425 79.251 167.167 89.157C172.104 91.3071 176.891 93.3946 181.339 95.5608C174.988 93.5857 168.256 91.8595 161.572 90.1445C126.961 81.2791 91.2412 72.131 95.5274 31.7203ZM172.357 137.444C166.866 138.404 161.279 139.179 155.625 139.764C156.686 135.312 157.653 130.302 158.68 124.779C160.577 114.581 162.533 104.084 165.904 96.4664C189.348 102.649 208.217 109.274 207.793 127.344C198.603 131.361 187.087 134.809 172.357 137.444ZM216.012 123.283C214.022 103.612 193.703 94.7515 172.266 85.4171C143.705 72.9773 114.245 60.1424 118.909 19.2981C135.406 36.9615 160.087 42.3778 184.061 47.6351C210.833 53.5074 236.129 59.0585 250.046 81.6195C249.449 82.8731 248.846 84.1299 248.237 85.3899C241.755 98.8349 235.097 112.575 216.024 123.283H216.012ZM253.925 74.3149C241.855 59.1597 223.965 52.2484 205.028 47.3846C219.002 36.3963 234.471 30.0712 248.894 29.5011C260.103 29.0499 270.794 31.9917 280.678 38.2269L281.247 38.5769C285.43 41.2136 289.734 43.929 292.845 47.6688C270.288 52.4989 260.686 62.5992 253.925 74.3149Z" fill="url(#paint0_linear_24_4)"/>
<defs>
<linearGradient id="paint0_linear_24_4" x1="63.7864" y1="139.263" x2="145.268" y2="-47.599" gradientUnits="userSpaceOnUse">
<stop stop-color="#941D80"/>
<stop offset="1" stop-color="#29265B"/>
</linearGradient>
</defs>
</svg>
